<?xml version="1.0" encoding="UTF-8" standalone="no"?>
<!DOCTYPE svg PUBLIC "-//W3C//DTD SVG 20010904//EN"
              "http://www.w3.org/TR/2001/REC-SVG-20010904/DTD/svg10.dtd">

<svg xmlns="http://www.w3.org/2000/svg"
     width="66.3788mm" height="63.2461mm"
     viewBox="0 0 784 747">
  <path id="Selection"
        fill="none" stroke="black" stroke-width="1"
        d="M 20.00,0.00
           C 25.45,0.91 25.86,3.60 28.69,8.00
             28.69,8.00 41.66,28.00 41.66,28.00
             41.66,28.00 98.02,112.00 98.02,112.00
             125.40,151.54 153.94,190.80 184.42,228.00
             184.42,228.00 250.83,303.00 250.83,303.00
             267.49,321.51 286.19,341.77 305.00,358.00
             314.02,365.78 328.24,377.20 339.00,382.00
             339.00,382.00 340.00,367.00 340.00,367.00
             340.00,367.00 341.00,336.00 341.00,336.00
             341.00,336.00 341.96,326.00 341.96,326.00
             341.96,326.00 341.96,314.00 341.96,314.00
             341.96,314.00 343.00,294.00 343.00,294.00
             343.00,294.00 344.00,275.00 344.00,275.00
             344.00,275.00 345.00,258.00 345.00,258.00
             345.00,258.00 346.00,241.00 346.00,241.00
             346.00,241.00 347.00,216.00 347.00,216.00
             347.00,216.00 348.00,206.00 348.00,206.00
             348.00,206.00 348.00,196.00 348.00,196.00
             348.00,196.00 349.00,182.00 349.00,182.00
             349.00,182.00 350.00,172.00 350.00,172.00
             350.00,172.00 350.00,162.00 350.00,162.00
             350.00,162.00 351.00,149.00 351.00,149.00
             351.00,149.00 352.00,135.00 352.00,135.00
             352.00,135.00 353.91,105.00 353.91,105.00
             353.91,105.00 357.09,51.00 357.09,51.00
             357.09,51.00 359.00,24.00 359.00,24.00
             359.00,24.00 366.00,24.00 366.00,24.00
             366.00,24.00 367.91,55.00 367.91,55.00
             367.91,55.00 369.00,78.00 369.00,78.00
             369.00,78.00 370.00,91.00 370.00,91.00
             370.00,91.00 372.00,132.00 372.00,132.00
             372.00,132.00 373.00,142.00 373.00,142.00
             373.00,142.00 373.00,154.00 373.00,154.00
             373.00,154.00 374.00,166.00 374.00,166.00
             374.00,166.00 376.00,188.00 376.00,188.00
             378.59,181.89 384.07,175.36 388.13,170.00
             388.13,170.00 418.83,134.00 418.83,134.00
             449.37,100.19 491.87,61.52 531.00,38.00
             548.85,27.27 573.84,15.24 595.00,15.00
             600.73,14.94 606.48,15.39 612.00,17.04
             641.28,25.78 647.52,54.49 650.17,81.00
             650.17,81.00 652.00,101.00 652.00,101.00
             652.00,101.00 652.00,122.00 652.00,122.00
             651.98,136.74 648.95,156.64 645.37,171.00
             631.96,224.91 603.88,265.30 558.00,296.98
             541.02,308.70 520.13,319.61 501.00,327.40
             501.00,327.40 476.00,337.00 476.00,337.00
             476.00,337.00 496.00,336.00 496.00,336.00
             496.00,336.00 533.00,335.00 533.00,335.00
             533.00,335.00 543.00,335.96 543.00,335.96
             543.00,335.96 556.00,335.96 556.00,335.96
             556.00,335.96 596.00,339.87 596.00,339.87
             645.94,346.81 693.87,362.09 723.33,406.00
             731.28,417.85 735.50,426.52 740.00,440.00
             744.54,453.61 748.83,472.67 749.00,487.00
             749.00,487.00 749.00,510.00 749.00,510.00
             748.95,541.85 736.51,580.91 724.00,610.00
             738.36,611.90 760.02,616.79 773.00,622.89
             773.00,622.89 784.00,629.00 784.00,629.00
             780.40,635.15 775.71,629.57 768.00,626.45
             759.24,622.90 742.47,619.12 733.00,618.04
             729.84,617.69 724.07,616.33 721.39,618.04
             719.41,619.26 717.05,623.87 715.86,626.00
             715.86,626.00 706.31,642.00 706.31,642.00
             696.43,657.16 685.07,669.84 671.00,681.20
             648.54,699.32 625.37,707.42 597.00,710.17
             597.00,710.17 588.00,711.00 588.00,711.00
             561.79,711.30 536.69,704.92 512.00,696.67
             499.50,692.49 483.52,685.69 473.00,677.84
             466.57,673.04 460.78,665.51 461.39,657.00
             462.63,639.56 484.91,631.37 499.00,626.67
             522.37,618.87 546.70,614.35 571.00,610.58
             571.00,610.58 607.00,605.96 607.00,605.96
             607.00,605.96 618.00,605.96 618.00,605.96
             618.00,605.96 628.00,605.00 628.00,605.00
             628.00,605.00 659.00,605.00 659.00,605.00
             659.00,605.00 674.00,606.05 674.00,606.05
             674.00,606.05 687.00,606.05 687.00,606.05
             689.70,606.42 693.16,607.50 695.61,606.05
             698.72,604.04 701.99,594.60 703.32,591.00
             708.74,576.35 711.93,565.33 715.00,550.00
             717.09,539.54 718.36,529.61 719.09,519.00
             719.09,519.00 719.99,510.00 719.99,510.00
             719.99,510.00 718.96,497.00 718.96,497.00
             718.96,497.00 718.96,489.00 718.96,489.00
             715.54,454.59 701.28,421.38 674.00,399.31
             651.09,380.78 615.52,371.30 587.00,365.60
             555.12,359.22 510.49,355.05 478.00,355.00
             478.00,355.00 461.00,354.00 461.00,354.00
             461.00,354.00 412.00,354.00 412.00,354.00
             412.00,354.00 397.00,355.00 397.00,355.00
             397.00,355.00 382.00,355.00 382.00,355.00
             382.00,355.00 383.00,367.00 383.00,367.00
             383.00,367.00 383.00,380.00 383.00,380.00
             383.00,380.00 383.96,391.00 383.96,391.00
             383.96,391.00 383.96,402.00 383.96,402.00
             383.96,402.00 385.00,417.00 385.00,417.00
             385.00,417.00 386.00,439.00 386.00,439.00
             386.00,439.00 387.00,453.00 387.00,453.00
             387.00,453.00 389.00,489.00 389.00,489.00
             389.00,489.00 389.00,553.00 389.00,553.00
             389.00,553.00 388.00,572.00 388.00,572.00
             388.00,572.00 387.09,582.00 387.09,582.00
             387.09,582.00 380.28,655.00 380.28,655.00
             377.23,678.41 373.87,701.96 368.65,725.00
             368.65,725.00 364.87,741.00 364.87,741.00
             364.22,743.37 363.70,746.06 360.88,746.63
             354.51,747.91 353.13,732.38 352.12,728.00
             352.12,728.00 341.58,665.00 341.58,665.00
             337.71,638.34 335.13,607.90 333.96,581.00
             333.96,581.00 332.96,570.00 332.96,570.00
             332.96,570.00 332.96,558.00 332.96,558.00
             332.96,558.00 332.00,546.00 332.00,546.00
             332.00,546.00 332.00,507.00 332.00,507.00
             332.00,507.00 333.00,485.00 333.00,485.00
             333.00,485.00 333.91,473.00 333.91,473.00
             333.91,473.00 336.91,428.00 336.91,428.00
             336.91,428.00 339.00,394.00 339.00,394.00
             323.97,392.77 302.94,383.10 290.00,375.40
             290.00,375.40 276.00,366.33 276.00,366.33
             273.47,364.68 271.20,362.79 268.00,363.49
             264.58,364.23 245.17,376.63 241.00,379.31
             219.76,392.96 199.60,407.68 180.00,423.61
             156.16,442.98 123.82,471.69 104.43,495.00
             67.99,538.81 39.98,594.06 22.00,648.00
             16.98,663.05 6.06,698.35 4.00,713.00
             -1.46,710.81 0.25,707.99 0.85,703.00
             0.85,703.00 3.59,683.00 3.59,683.00
             8.70,651.19 16.16,622.53 26.33,592.00
             41.06,547.82 63.73,506.20 91.63,469.00
             119.07,432.40 143.82,406.57 184.00,383.72
             201.04,374.03 215.42,367.53 234.00,361.33
             242.13,358.62 250.37,355.40 259.00,355.00
             259.00,355.00 231.00,328.96 231.00,328.96
             219.99,318.41 205.64,301.16 196.00,289.00
             196.00,289.00 161.28,241.00 161.28,241.00
             128.87,194.70 98.65,147.14 70.72,98.00
             70.72,98.00 35.69,34.00 35.69,34.00
             31.36,25.98 20.88,8.31 20.00,0.00 Z
           M 382.00,343.00
           C 393.71,340.64 428.97,328.96 441.00,324.42
             508.64,298.91 578.42,257.28 609.69,189.00
             620.07,166.33 625.39,142.74 627.09,118.00
             627.09,118.00 628.00,106.00 628.00,106.00
             628.00,106.00 627.00,79.00 627.00,79.00
             626.83,65.06 622.46,44.88 609.00,37.99
             603.00,34.92 598.50,34.93 592.00,35.00
             572.80,35.23 546.29,48.82 530.00,58.60
             488.30,83.62 451.28,115.72 417.00,150.00
             406.74,160.26 396.82,170.77 387.61,182.00
             384.93,185.28 377.99,193.45 376.72,197.00
             375.69,199.88 375.96,207.62 376.00,211.00
             376.00,211.00 376.96,221.00 376.96,221.00
             376.96,221.00 376.96,233.00 376.96,233.00
             376.96,233.00 378.00,248.00 378.00,248.00
             378.00,248.00 379.00,270.00 379.00,270.00
             379.00,270.00 380.00,292.00 380.00,292.00
             380.00,292.00 381.00,326.00 381.00,326.00
             381.00,326.00 382.00,343.00 382.00,343.00 Z
           M 693.00,615.00
           C 693.00,615.00 676.00,614.00 676.00,614.00
             676.00,614.00 652.00,615.00 652.00,615.00
             652.00,615.00 607.00,617.17 607.00,617.17
             590.37,618.78 543.48,628.83 527.00,633.72
             515.78,637.05 498.94,642.27 489.00,648.01
             485.82,649.85 478.61,653.67 479.03,658.00
             479.44,662.18 487.58,666.66 491.00,668.56
             502.27,674.83 524.17,681.42 537.00,684.63
             558.97,690.12 565.87,690.03 588.00,690.00
             596.06,689.99 602.24,688.82 610.00,686.87
             647.86,677.37 676.31,649.69 693.00,615.00 Z" />
</svg>
